# xmcd
#
# Track frame offsets:
#	150
#	16844
#	37128
#	53888
#	72562
#	92340
#	110167
#	123643
#	141140
#	159274
#	173420
#
# Disc length: 2719 seconds
#
# Revision: 4
# Processed by: cddbd v1.5.2PL0 Copyright (c) Steve Scherf et al.
# Submitted via: EZCDAudioConverter 5.0.5.1
#
DISCID=910a9d0b
DTITLE=Holly Williams - The Highway
DYEAR=2013
DGENRE=Country
TTITLE0=Drinkin'
TTITLE1=Holly Williams feat. Jackson Browne - Gone Away From Me
TTITLE2=Railroads
TTITLE3=Happy
TTITLE4=The Highway
TTITLE5=Holly Williams feat. Jakob Dylan - Without You
TTITLE6=Let You Go
TTITLE7=Giving Up
TTITLE8=A Good Man
TTITLE9=Holly Williams feat. Dierks Bentley - 'Til It Runs Dry
TTITLE10=Holly Williams feat. Gwyneth Paltrow - Waiting On June
EXTD=
EXTT0=
EXTT1=
EXTT2=
EXTT3=
EXTT4=
EXTT5=
EXTT6=
EXTT7=
EXTT8=
EXTT9=
EXTT10=
PLAYORDER=
